<svg version="1.1" xmlns="http://www.w3.org/2000/svg">

<symbol id="duck-icon" viewBox="0 0 327 327"><path d="m269 138c-3-2-4-3-4-4 0 0 1-1 4-3 34-16 53-36 53-54 0-15-8-22-23-22-4 0-9 0-15 1-1 0-1 0-2 0-6 0-12-4-15-11C254 18 225 0 194 0c-44 0-80 36-80 80 0 21 8 40 22 55 3 3 3 5 3 6 0 1-1 2-4 2-11 3-21 5-32 5-5 0-11-1-16-2-3-1-7-2-12-4-11-4-25-8-38-8-11 0-20 4-25 12-11 16-8 48 10 98 22 61 62 83 149 83 13 0 28-1 44-2 30-2 55-12 73-28 19-18 29-42 29-70 0-36-18-69-47-89zM203 44c9 0 17 7 17 17 0 9-7 17-17 17-9 0-17-7-17-17 0-9 7-17 17-17z"/></symbol>

<symbol id="leftarrow-icon" viewBox="0 0 22 22"><path d="M10.5 11l6.7-6.7c0.8-0.8 0.8-2.1 0-2.9l-0.7-0.7c-0.8-0.8-2.1-0.8-2.9 0L4.8 9.4c-0.4 0.4-0.6 1-0.6 1.6 0 0.6 0.2 1.2 0.6 1.6l8.8 8.8c0.8 0.8 2.1 0.8 2.9 0l0.7-0.7c0.8-0.8 0.8-2.1 0-2.9L10.5 11z"/></symbol>

<symbol id="rightarrow-icon" viewBox="0 0 46 46"><path d="M14.8 46c-1.4 0-2.8-0.5-3.9-1.6 -2.3-2.2-2.4-5.8-0.2-8.1l12.8-13.4L10.6 9.6C8.5 7.4 8.5 3.8 10.8 1.6c2.3-2.2 5.9-2.1 8.1 0.2l16.5 17.3c2.1 2.2 2.1 5.7 0 7.9L18.9 44.2C17.8 45.4 16.3 46 14.8 46z"/></symbol>

<symbol id="facebook-icon" viewBox="0 0 96.1 96.1"><path d="M72.1 0L59.6 0C45.6 0 36.6 9.3 36.6 23.7v10.9H24c-1.1 0-2 0.9-2 2v15.8c0 1.1 0.9 2 2 2h12.5v39.9c0 1.1 0.9 2 2 2h16.4c1.1 0 2-0.9 2-2V54.3h14.7c1.1 0 2-0.9 2-2l0-15.8c0-0.5-0.2-1-0.6-1.4 -0.4-0.4-0.9-0.6-1.4-0.6H56.8v-9.2c0-4.4 1.1-6.7 6.8-6.7l8.4 0c1.1 0 2-0.9 2-2V2C74 0.9 73.2 0 72.1 0z"/></symbol>

<symbol id="github-icon" viewBox="0 0 478.6 478.6"><path d="M427.5 200.7c1.8-11.2 2.9-23.6 3.2-37.4 -0.1-59.2-28.5-80.2-33.9-90 8-44.9-1.3-65.3-5.7-72.3 -16.1-5.7-55.9 14.7-77.7 29.1 -35.5-10.4-110.5-9.4-138.6 2.7C122.9-4.4 95.4 1.3 95.4 1.3s-17.7 31.8-4.7 78.4c-17.1 21.8-29.8 37.1-29.8 77.9 0 9.8 0.6 19 1.6 27.9 14.7 77.3 76 110.7 136.2 116.4 -9.1 6.9-19.9 19.9-21.4 35 -11.4 7.4-34.3 9.8-52.1 4.2 -24.9-7.9-34.5-57.3-71.8-50.2 -8.1 1.5-6.5 6.8 0.5 11.4 11.4 7.4 22.1 16.6 30.4 36.2 6.3 15.1 19.7 42 61.9 42 16.7 0 28.5-2 28.5-2s0.3 38.4 0.3 53.4c0 17.2-23.3 22.1-23.3 30.3 0 3.3 7.7 3.6 13.9 3.6 12.2 0 37.7-10.2 37.7-28.1 0-14.2 0.2-62.1 0.2-70.5 0-18.3 9.8-24.1 9.8-24.1s1.2 97.7-2.4 110.8c-4.2 15.4-11.7 13.2-11.7 20.1 0 10.2 30.6 2.5 40.7-19.9 7.8-17.5 4.3-113.3 4.3-113.3l8.2-0.2c0 0 0.1 43.9-0.2 63.9 -0.3 20.8-2.4 47 9.9 59.4 8.1 8.2 32.9 22.5 32.9 9.4 0-7.6-17.4-13.8-17.4-34.4V344.5c10.6 0 12.7 31.1 12.7 31.1l3.8 57.7c0 0-2.5 21.1 22.8 29.9 8.9 3.1 28 4 28.9-1.3 0.9-5.3-23-13-23.2-29.3 -0.1-9.9 0.4-15.7 0.4-58.9 0-43.2-5.8-59.1-26-71.9C355.7 295.7 416.5 269.5 427.5 200.7z"/></symbol>

</svg>
